<svg width="48" height="32" viewBox="0 0 48 32" fill="none" xmlns="http://www.w3.org/2000/svg">
<g id="Metro">
<path id="Vector (Stroke)" fill-rule="evenodd" clip-rule="evenodd" d="M0 0.320068H25.193C30.6908 0.320068 36.146 3.49655 40.275 7.29024C42.3539 9.20026 44.1349 11.3007 45.4561 13.308C46.7648 15.2962 47.6712 17.2668 47.9104 18.9117C48.2462 21.2203 47.6006 23.0036 46.5988 24.3184C46.1288 24.9352 45.5874 25.4407 45.0474 25.8505H47.0855V27.7426H0C0 27.3096 0 25.5722 0 25.5722H3.09297V16.6817H0V14.7896H3.09297V7.36788H0V5.47575H3.83734C3.90235 5.46163 3.96985 5.45419 4.03909 5.45419H15.1698C15.2391 5.45419 15.3066 5.46163 15.3716 5.47575H22.2468C22.592 5.47575 22.9098 5.66377 23.076 5.96633L26.7775 12.7046C27.2184 13.5071 27.0763 14.5044 26.4288 15.1519L25.3359 16.2447C25.1585 16.4221 24.9179 16.5218 24.6669 16.5218H16.116V19.0487H46.0163C45.803 17.814 45.0742 16.1692 43.8755 14.3482C43.6604 14.0213 43.4315 13.691 43.1898 13.3586L43.2318 13.8963C40.9559 14.0741 36.616 14.207 34.2422 14.207C32.9756 14.207 32.039 14.0193 31.3655 13.7405C30.7784 13.4975 30.2765 13.1336 30.0427 12.663L26.3941 6.92973C26.2533 6.70849 26.2106 6.43873 26.2763 6.18484C26.342 5.93096 26.5101 5.71573 26.7406 5.59053L30.8222 3.3729C28.9641 2.63803 27.0635 2.2122 25.193 2.2122H0V0.320068ZM32.9643 4.36248L28.5347 6.76912L31.6733 11.7008C31.6897 11.7266 31.7048 11.7531 31.7186 11.7803C31.7379 11.7975 31.8318 11.8857 32.0892 11.9922C32.4749 12.1519 33.1518 12.3149 34.2422 12.3149C36.2989 12.3149 39.8604 12.2129 42.1958 12.0708C41.2569 10.9211 40.1788 9.77147 38.9947 8.68353C37.165 7.00242 35.1144 5.49724 32.9643 4.36248ZM46.0465 20.9409H37.1782L35.1712 25.5722H40.3566C41.1945 25.5722 41.9324 25.471 42.5547 25.1673C43.3517 24.7783 44.3584 24.1366 45.0936 23.1717C45.5463 22.5776 45.9079 21.8472 46.0465 20.9409ZM33.109 25.5722L35.116 20.9409H16.116V25.5722H33.109ZM14.2237 25.4885V7.36788H10.7762V25.4885H14.2237ZM8.884 25.4885V7.36788H4.9852V25.4885H8.884ZM16.116 7.36788V14.6297H17.7088V7.36788H16.116ZM19.6011 7.36788V14.6297H24.275L25.0908 13.814C25.1433 13.7615 25.1548 13.6806 25.119 13.6155L21.687 7.36788H19.6011ZM0 29.7879H47.0855V31.6801H0V29.7879Z" fill="#000000"/>
</g>
</svg>
